<svg width="500" height="500" viewBox="0 0 500 500" xmlns="http://www.w3.org/2000/svg" fill-rule="evenodd" clip-rule="evenodd" stroke-linejoin="round" stroke-miterlimit="2"><g fill-rule="nonzero"><path d="M46.416 2.791h407.168c23.935 0 43.625 19.69 43.625 43.625v407.168c0 23.935-19.69 43.625-43.625 43.625H46.416c-23.935 0-43.625-19.69-43.625-43.625V46.416c0-23.935 19.69-43.625 43.625-43.625z" fill="#f7df1e"/><path d="M334.924 389.019c9.888 16.286 22.83 28.21 45.806 28.21 19.34 0 31.555-9.597 31.555-22.83 0-15.996-12.65-21.667-33.736-30.828l-11.634-5.09c-33.591-14.25-55.84-31.992-55.84-69.945 0-34.9 26.466-61.366 68.055-61.366 29.52 0 50.75 10.179 66.02 37.226l-36.21 23.267c-7.852-14.396-16.431-19.922-29.81-19.922-13.669 0-22.249 8.58-22.249 19.922 0 13.815 8.726 19.486 28.502 28.21l11.634 4.945c39.553 16.868 61.802 34.173 61.802 73 0 41.734-32.864 64.71-77.071 64.71-43.044 0-70.964-20.65-84.633-47.551l37.809-21.813v-.145zm-164.176 4.071c7.27 12.942 13.96 23.849 29.956 23.849 15.268 0 24.866-5.817 24.866-29.084V229.642h46.533v158.504c0 48.279-28.21 70.091-69.364 70.091-29.752 1.658-57.6-15.283-69.8-42.462l37.809-22.685z"/></g></svg>